<svg width="1469" height="1340" viewBox="0 0 1469 1340" fill="none" xmlns="http://www.w3.org/2000/svg">
<path fill-rule="evenodd" clip-rule="evenodd" d="M44.6225 1286.32V1294.96H35.6359V1262.96H51.0688C59.6051 1262.96 63.8264 1268.36 63.8264 1274.62C63.8264 1281.16 59.5592 1286.23 51.0688 1286.32H44.6225ZM44.6225 1278.69H51.0679C51.5818 1278.71 52.0939 1278.62 52.5706 1278.43C53.0473 1278.23 53.4777 1277.94 53.8335 1277.57C54.1894 1277.2 54.4626 1276.76 54.6352 1276.27C54.8079 1275.79 54.876 1275.27 54.8351 1274.76C54.8736 1274.24 54.8045 1273.72 54.632 1273.23C54.4596 1272.74 54.1877 1272.3 53.8336 1271.92C53.4794 1271.54 53.0507 1271.24 52.5746 1271.04C52.0985 1270.83 51.5854 1270.73 51.0679 1270.74H44.6225V1278.69ZM124.379 1271.84C122.214 1270.29 119.592 1269.51 116.935 1269.64C114.756 1269.64 112.62 1270.32 112.62 1272.01C112.62 1274.21 114.753 1274.53 117.885 1274.85C124.194 1275.54 130.776 1278.1 130.776 1285.45C130.776 1292.72 123.967 1295.84 116.841 1295.87C111.119 1295.92 107.036 1294.92 102.633 1290.26L107.58 1284.54C108.808 1285.74 110.265 1286.68 111.864 1287.3C113.463 1287.92 115.171 1288.21 116.886 1288.16C119.836 1288.16 121.879 1287.1 121.879 1285.32C121.879 1283.71 120.063 1282.71 116.568 1282.39C109.626 1281.75 103.632 1279.97 103.632 1272.01C103.632 1265.25 110.213 1262.32 116.931 1262.32C121.697 1262.32 125.419 1263.42 128.824 1266.12L124.379 1271.84ZM172.043 1294.96V1262.96H180.985V1294.96H172.04H172.043ZM252.842 1290.8C251.167 1292.46 249.171 1293.76 246.977 1294.61C244.784 1295.47 242.438 1295.87 240.085 1295.79C227.602 1295.79 222.746 1287.87 222.7 1279.2C222.655 1270.96 228.147 1262.24 240.085 1262.24C242.374 1262.22 244.644 1262.66 246.759 1263.54C248.873 1264.42 250.787 1265.72 252.387 1267.36L246.852 1272.84C245.971 1271.94 244.918 1271.23 243.755 1270.75C242.593 1270.27 241.346 1270.03 240.089 1270.05C233.961 1270.05 231.552 1275.08 231.601 1279.24C231.65 1283.4 233.824 1288.11 240.089 1288.11C242.91 1288.03 245.592 1286.87 247.578 1284.86L252.842 1290.8ZM308.496 1295.74C298.1 1295.74 290.838 1289.66 290.838 1278.96C290.838 1268.46 298.1 1262.19 308.496 1262.19C318.935 1262.19 326.153 1268.31 326.153 1278.96C326.153 1289.66 318.94 1295.74 308.496 1295.74ZM308.496 1269.91C303.366 1269.91 299.825 1273.67 299.825 1278.96C299.825 1284.32 303.411 1288.02 308.496 1288.02C313.761 1288.02 317.165 1284.27 317.165 1278.96C317.165 1273.48 313.761 1269.91 308.496 1269.91ZM376.813 1262.96V1287.28H392.019V1294.96H367.825V1262.96H376.813ZM448.489 1295.74C438.094 1295.74 430.832 1289.66 430.832 1278.96C430.832 1268.46 438.094 1262.19 448.489 1262.19C458.929 1262.19 466.147 1268.31 466.147 1278.96C466.147 1289.66 458.929 1295.74 448.486 1295.74H448.489ZM448.489 1269.91C443.36 1269.91 439.819 1273.67 439.819 1278.96C439.819 1284.32 443.405 1288.02 448.489 1288.02C453.755 1288.02 457.159 1284.27 457.159 1278.96C457.159 1273.48 453.755 1269.91 448.486 1269.91H448.489ZM530.696 1272.43C528.724 1270.6 526.123 1269.6 523.434 1269.64C518.26 1269.64 514.898 1272.75 514.898 1279.01C514.898 1283.12 517.031 1288.2 523.434 1288.2C525.594 1288.27 527.726 1287.69 529.562 1286.55V1282.44H521.528V1275.36H537.052V1289.57C535.054 1293.64 529.516 1295.84 523.388 1295.84C510.818 1295.84 506.049 1287.38 506.049 1279.01C506.049 1270.64 511.496 1262.05 523.434 1262.05C525.766 1261.94 528.095 1262.34 530.254 1263.23C532.412 1264.13 534.346 1265.49 535.917 1267.22L530.696 1272.43ZM579.133 1294.96V1262.96H588.075V1294.96H579.133ZM653.44 1289.71H639.233L637.144 1294.96H627.613L641.866 1262.96H650.944L665.151 1294.96H655.529L653.44 1289.71ZM646.36 1271.93L642.275 1282.12H650.399L646.36 1271.93ZM776.411 1285.86C776.411 1288.16 777.229 1290.12 779.544 1290.12V1295.06C777.138 1295.14 774.641 1294.33 773.733 1290.9C771.782 1293.91 768.377 1295.47 764.247 1295.47C757.665 1295.47 752.172 1292.13 752.172 1285.55C752.246 1283.99 752.789 1282.49 753.729 1281.25C754.669 1280.01 755.962 1279.09 757.438 1278.6C756.116 1278.04 754.987 1277.11 754.195 1275.92C753.403 1274.72 752.984 1273.32 752.989 1271.88C753.035 1265.53 758.617 1262.56 764.701 1262.56C770.102 1262.56 775.912 1264.47 775.957 1271.33H771.192C771.192 1267.85 768.06 1266.9 764.565 1266.9C759.571 1266.9 757.892 1269.54 757.937 1271.88C757.937 1275.54 762.023 1276.59 764.565 1276.59H779.09V1280.65H776.411V1285.86ZM757.165 1285.59C757.165 1289.16 760.388 1290.8 764.474 1290.8C767.016 1290.8 771.645 1289.61 771.645 1285.86V1280.65H764.292C759.435 1280.65 757.165 1283.31 757.165 1285.59ZM885.538 1262.96C891.575 1262.96 896.341 1265.75 896.341 1272.11C896.36 1273.49 895.945 1274.85 895.156 1275.99C894.367 1277.13 893.242 1278 891.938 1278.47C893.488 1278.98 894.84 1279.96 895.808 1281.28C896.775 1282.6 897.31 1284.18 897.339 1285.82C897.339 1292.81 891.805 1294.96 885.538 1294.96H870.967V1262.96H885.538ZM876.005 1276.22H885.583C889.396 1276.22 891.305 1274.71 891.305 1272.2C891.305 1269.96 889.353 1267.58 885.54 1267.58H876.005V1276.22ZM876.005 1290.21H885.538C888.352 1290.21 892.256 1289.29 892.256 1285.78C892.256 1282.34 888.488 1280.79 885.583 1280.79H876.005V1290.21ZM963.93 1294.96H940.46V1262.96H963.799V1267.95H945.544V1276.59H963.067V1281.34H945.544V1289.94H963.93V1294.96ZM1035.11 1270.46L1024.3 1285.59H1023.22L1012.55 1270.46V1295.01H1007.47V1263.01H1013.37L1023.85 1278.01L1034.29 1263.01H1040.19V1295.01H1035.11V1270.46ZM1084.36 1277.27H1100.89V1281.48H1084.36V1277.27ZM1168.52 1294.96H1145.05V1262.96H1168.38V1267.95H1150.14V1276.59H1167.66V1281.34H1150.14V1289.94H1168.52V1294.96ZM1231.02 1270.05C1229.53 1267.85 1226.49 1266.53 1223.17 1266.48C1218.9 1266.48 1215.82 1268.27 1215.82 1271.33C1215.82 1274.44 1219.36 1275.31 1223.54 1275.9C1230.08 1276.81 1236.3 1278.64 1236.3 1285.82C1236.25 1293 1229.76 1295.7 1223.13 1295.7C1217.05 1295.7 1212.38 1293.82 1209.47 1288.43L1213.28 1285.86C1215.55 1289.75 1219.49 1291.12 1223.17 1291.12C1226.99 1291.12 1231.21 1289.85 1231.21 1285.82C1231.21 1282.34 1227.53 1281.16 1223.09 1280.57C1216.77 1279.7 1210.78 1278.1 1210.78 1271.24C1210.73 1264.61 1217.32 1262.05 1223.04 1262.05C1227.63 1262.05 1232.21 1263.15 1234.89 1267.44L1231.02 1270.05ZM1286.23 1267.58H1275.79V1262.96H1301.75V1267.58H1291.36V1294.96H1286.23V1267.58ZM1362.67 1288.24H1345.47L1342.47 1294.96H1337.07L1351.32 1262.96H1356.85L1371.11 1294.96H1365.71L1362.67 1288.24ZM1354.09 1268.36L1347.37 1283.58H1360.8L1354.09 1268.36ZM1439.93 1294.96H1433.98L1424.31 1283.9H1417.59V1294.96H1412.51V1262.92C1417.46 1262.92 1422.36 1262.96 1427.31 1262.96C1434.67 1262.96 1438.52 1268.04 1438.52 1273.43C1438.52 1278.01 1436.16 1282.48 1429.89 1283.4L1439.39 1294.05L1439.93 1294.96ZM1417.59 1267.63V1279.24H1427.27C1431.49 1279.24 1433.34 1276.54 1433.34 1273.53C1433.38 1272.73 1433.24 1271.94 1432.95 1271.2C1432.66 1270.46 1432.21 1269.79 1431.64 1269.23C1431.07 1268.68 1430.39 1268.25 1429.65 1267.97C1428.9 1267.69 1428.11 1267.58 1427.31 1267.63H1417.59Z" fill="#A16BA8"/>
<path fill-rule="evenodd" clip-rule="evenodd" d="M35.6462 1203.38C48.674 1199.18 60.3059 1189.87 74.7286 1154.44L166.387 926.951C169.644 918.561 169.179 912.5 165.457 905.043L161.269 895.253L196.165 879.403L310.621 1154.9C325.045 1189.87 336.212 1199.18 345.981 1203.38V1209.44H273.864V1203.38C288.288 1199.18 284.566 1189.87 269.677 1154.9L241.296 1086.38H110.09L82.643 1154.44C70.542 1184.73 72.4069 1200.12 88.2263 1203.38V1209.44H35.6462V1203.38ZM238.504 1079.38L174.76 926.019L112.881 1079.38H238.504Z" fill="#737377"/>
<path fill-rule="evenodd" clip-rule="evenodd" d="M456.595 1084.08V937.399C456.595 899.216 452.408 888.506 437.986 884.315V878.262H513.351V884.315C499.394 888.506 494.743 899.216 494.743 937.399V1081.29C494.743 1167.89 542.66 1199.1 603.137 1199.1C643.146 1199.1 696.646 1172.55 696.646 1081.29V956.029C696.646 902.942 685.483 889.905 665.012 884.316V878.263H722.702V884.316C708.746 888.507 704.094 899.217 704.094 937.4V1079.89C704.094 1173.48 652.921 1208.87 588.255 1208.87C521.725 1208.87 456.595 1177.67 456.595 1084.08Z" fill="#737377"/>
<path fill-rule="evenodd" clip-rule="evenodd" d="M987.86 1137.73C960.863 1073.42 957.139 1040.8 901.278 1040.8H871.48V1149.85C871.48 1188.05 875.67 1198.78 890.101 1202.97V1209.03H814.686V1202.97C829.117 1198.78 833.307 1188.05 833.307 1149.85V942.01C833.307 903.791 829.117 893.076 814.686 888.882V882.823H906.395C1000.9 882.823 1028.83 914.046 1028.83 955.522C1028.83 999.328 997.175 1032.41 936.654 1039.41C993.911 1046.86 1002.76 1075.29 1025.1 1132.61C1047.45 1188.52 1056.76 1203.91 1072.59 1203.91C1075.08 1204 1077.57 1203.84 1080.03 1203.44V1209.03C1073.05 1211.36 1060.95 1212.29 1051.64 1212.29C1015.8 1212.29 1008.35 1186.2 987.86 1137.73ZM910.584 1033.81C964.118 1033.81 989.258 1005.84 989.258 966.237C989.258 924.764 962.261 889.813 893.359 889.813C886.377 889.813 878.928 890.283 871.48 890.746V1033.81H910.584Z" fill="#737377"/>
<path fill-rule="evenodd" clip-rule="evenodd" d="M1265.7 1206.23C1279.66 1202.05 1284.32 1191.33 1283.86 1153.14V1065.57L1213.57 937.945C1195.42 904.875 1181.92 896.491 1172.15 892.298V886.243H1245.69V892.298C1231.73 896.491 1237.31 904.875 1255.93 937.945L1320.62 1053.46L1385.78 937.945C1401.61 909.532 1402.08 895.559 1384.39 892.298V886.243H1439.78V892.298C1427.21 896.491 1412.78 904.875 1394.16 937.945L1322.95 1064.64V1153.14C1322.95 1191.33 1327.14 1202.05 1341.56 1206.23V1212.29H1265.7V1206.23Z" fill="#737377"/>
<g style="mix-blend-mode:multiply">
<path opacity="0.95" fill-rule="evenodd" clip-rule="evenodd" d="M703.213 436.87C696.697 452.668 657.169 497.394 596.229 500.005C528.978 502.876 421.405 452.959 421.012 445.093C421.01 444.882 421.054 444.673 421.142 444.481C425.227 434.577 524.285 378.254 590.018 375.436C657.277 372.559 703.665 422.982 704.162 432.971C704.116 434.322 703.793 435.649 703.213 436.87ZM304.604 449.19C304.478 449.469 304.414 449.772 304.416 450.078C304.991 461.502 461.273 534.046 558.982 529.858C647.535 526.068 704.961 461.033 714.412 438.114C715.252 436.347 715.72 434.425 715.788 432.469C715.067 418.008 647.664 344.704 549.953 348.884C454.445 352.975 310.527 434.821 304.604 449.188" fill="#9C63A3"/>
<path opacity="0.65" fill-rule="evenodd" clip-rule="evenodd" d="M420.689 444.338C420.597 444.533 420.548 444.745 420.545 444.961C420.763 452.992 528.661 503.583 596.525 501.303C658.03 499.231 698.899 453.945 705.825 437.886C706.437 436.646 706.793 435.296 706.871 433.915C706.598 423.711 660.976 371.777 593.108 374.059C526.767 376.294 425.024 434.269 420.687 444.335" fill="#9C63A3"/>
</g>
<g style="mix-blend-mode:multiply">
<g style="mix-blend-mode:multiply" opacity="0.95">
<path fill-rule="evenodd" clip-rule="evenodd" d="M701.145 412.015C684.867 418.004 624.27 419.141 580.355 375.205C531.901 326.716 495.078 211.613 500.674 205.904C500.83 205.757 501.016 205.646 501.22 205.58C511.424 201.824 621.673 237.374 669.039 284.762C717.501 333.252 711.814 402.788 704.705 410.039C703.664 410.934 702.451 411.605 701.14 412.011M417.453 121.373C417.159 121.47 416.889 121.63 416.662 121.842C408.531 130.141 462.014 297.375 532.426 367.814C596.238 431.658 684.316 429.964 707.927 421.276C709.824 420.689 711.581 419.717 713.086 418.42C723.381 407.923 731.673 306.863 661.265 236.414C592.443 167.562 432.258 115.924 417.453 121.373Z" fill="#9C63A3"/>
</g>
<g style="mix-blend-mode:multiply" opacity="0.65">
<path fill-rule="evenodd" clip-rule="evenodd" d="M501.017 205.145C500.809 205.21 500.617 205.319 500.454 205.465C494.61 211.159 531.158 326.968 579.592 376.328C623.49 421.062 685.43 420.539 702.185 414.677C703.531 414.282 704.784 413.619 705.869 412.728C713.295 405.497 720.637 335.497 672.197 286.138C624.844 237.894 511.513 201.466 501.015 205.143" fill="#9C63A3"/>
</g>
</g>
<g style="mix-blend-mode:multiply">
<g style="mix-blend-mode:multiply" opacity="0.95">
<path fill-rule="evenodd" clip-rule="evenodd" d="M732.144 398.159C715.977 396.452 664.518 372.291 645.676 317.121C624.894 256.235 641.356 144.118 648.419 141.633C648.611 141.575 648.813 141.559 649.011 141.586C659.142 142.657 737.261 218.27 757.586 277.778C778.376 338.669 744.928 394.824 735.955 397.974C734.711 398.297 733.413 398.36 732.144 398.158M613.239 36.0054C612.951 35.9652 612.658 35.9883 612.38 36.073C602.117 39.6854 578.182 202.575 608.394 291.032C635.77 371.205 710.58 406.289 734.031 408.761C735.87 409.053 737.748 408.963 739.551 408.497C752.54 403.931 801.181 322.329 770.976 233.867C741.442 147.406 627.937 37.5548 613.239 36.0054Z" fill="#9C63A3"/>
</g>
<g style="mix-blend-mode:multiply" opacity="0.65">
<path fill-rule="evenodd" clip-rule="evenodd" d="M649.02 141.137C648.818 141.104 648.611 141.116 648.413 141.172C641.148 143.542 624.163 256.137 644.567 317.749C663.07 373.584 715.403 398.822 731.918 400.837C733.213 401.062 734.54 401.024 735.82 400.723C745.05 397.718 780.083 341.858 759.671 280.245C739.716 220.015 659.37 142.39 649.02 141.137Z" fill="#9C63A3"/>
</g>
</g>
<g style="mix-blend-mode:multiply">
<g style="mix-blend-mode:multiply" opacity="0.95">
<path fill-rule="evenodd" clip-rule="evenodd" d="M766.624 386.662C753.807 379.171 720.002 339.743 724.923 286.755C730.363 228.282 785.924 141.155 792.729 141.74C792.911 141.763 793.085 141.826 793.24 141.924C801.275 146.619 838.051 238.874 832.747 296.03C827.313 354.509 778.51 388.685 769.864 387.941C768.708 387.741 767.605 387.306 766.624 386.662ZM802.891 40.6282C802.667 40.4865 802.414 40.3955 802.151 40.3615C792.261 39.5164 711.522 166.089 703.637 251.048C696.484 328.048 745.645 385.329 764.236 396.198C765.656 397.131 767.252 397.761 768.926 398.05C781.442 399.127 852.387 349.477 860.28 264.52C867.99 181.477 814.545 47.4409 802.889 40.632" fill="#9C63A3"/>
</g>
<g style="mix-blend-mode:multiply" opacity="0.65">
<path fill-rule="evenodd" clip-rule="evenodd" d="M793.416 141.55C793.259 141.448 793.083 141.38 792.898 141.352C785.967 140.596 729.79 227.924 723.769 286.86C718.32 340.274 752.448 380.926 765.44 388.802C766.433 389.477 767.553 389.943 768.731 390.174C777.535 391.137 827.547 357.803 833.563 298.865C839.441 241.253 801.559 146.483 793.414 141.55" fill="#9C63A3"/>
</g>
</g>
<g style="mix-blend-mode:multiply">
<g style="mix-blend-mode:multiply" opacity="0.95">
<path fill-rule="evenodd" clip-rule="evenodd" d="M808.799 384.849C797.606 374.884 771.986 329.147 787.354 277.714C804.324 220.958 876.555 145.853 883.171 147.788C883.346 147.846 883.506 147.942 883.64 148.07C890.658 154.316 908.747 252.9 892.17 308.378C875.203 365.14 820.155 389.218 811.751 386.758C810.647 386.33 809.642 385.68 808.8 384.847M913.266 49.7979C913.072 49.6131 912.84 49.4727 912.587 49.3866C902.972 46.5779 798.019 155.685 773.379 238.15C751.04 312.889 788.312 379.351 804.548 393.804C805.767 395.011 807.222 395.953 808.822 396.571C820.989 400.131 901.006 365.162 925.653 282.697C949.738 202.09 923.446 58.8567 913.271 49.7979" fill="#9C63A3"/>
</g>
<g style="mix-blend-mode:multiply" opacity="0.65">
<path fill-rule="evenodd" clip-rule="evenodd" d="M883.889 147.737C883.755 147.605 883.595 147.503 883.42 147.438C876.715 145.308 803.836 220.494 786.197 277.588C770.219 329.336 795.919 376.35 807.209 386.73C808.058 387.595 809.073 388.28 810.193 388.743C818.711 391.45 874.787 368.446 892.421 311.348C909.655 255.532 890.972 154.24 883.895 147.737" fill="#9C63A3"/>
</g>
</g>
<g style="mix-blend-mode:multiply">
<g style="mix-blend-mode:multiply" opacity="0.95">
<path fill-rule="evenodd" clip-rule="evenodd" d="M840.861 431.052C835.472 417.076 833.594 364.734 870.691 326.135C911.637 283.548 1010 250.018 1014.99 254.768C1015.12 254.901 1015.21 255.062 1015.27 255.238C1018.65 263.999 989.746 359.789 949.728 401.423C908.783 444.019 848.946 440.142 842.609 434.102C841.823 433.216 841.228 432.178 840.861 431.052ZM1086.38 181.603C1086.3 181.351 1086.16 181.121 1085.97 180.927C1078.72 174.025 935.812 222.725 876.332 284.612C822.419 340.698 825.185 416.778 833.003 437.049C833.536 438.679 834.398 440.181 835.535 441.463C844.709 450.202 931.674 455.862 991.159 393.979C1049.3 333.487 1091.29 194.308 1086.38 181.6" fill="#9C63A3"/>
</g>
<g style="mix-blend-mode:multiply" opacity="0.65">
<path fill-rule="evenodd" clip-rule="evenodd" d="M1015.65 255.052C1015.59 254.872 1015.49 254.707 1015.36 254.569C1010.38 249.603 911.412 282.906 869.718 325.489C831.935 364.084 833.301 417.6 838.587 431.99C838.944 433.148 839.531 434.222 840.313 435.148C846.638 441.457 906.898 446.759 948.59 404.171C989.34 362.537 1018.95 264.072 1015.64 255.053" fill="#9C63A3"/>
</g>
</g>
<g style="mix-blend-mode:multiply">
<g style="mix-blend-mode:multiply" opacity="0.95">
<path fill-rule="evenodd" clip-rule="evenodd" d="M857.554 453.1C856.512 438.153 870.104 387.581 916.9 361.662C968.546 333.069 1072.39 330.103 1075.77 336.12C1075.85 336.285 1075.89 336.467 1075.9 336.652C1076.55 346.022 1020.77 429.011 970.29 456.968C918.646 485.565 862.608 464.173 858.324 456.532C857.834 455.453 857.571 454.285 857.55 453.1M1165.5 287.308C1165.48 287.041 1165.42 286.78 1165.3 286.538C1160.4 277.8 1009.52 282.095 934.495 323.652C866.491 361.307 846.771 434.827 848.281 456.509C848.312 458.225 848.696 459.916 849.406 461.477C855.603 472.539 937.041 503.654 1012.08 462.103C1085.41 421.485 1166.45 300.901 1165.51 287.308" fill="#9C63A3"/>
</g>
<g style="mix-blend-mode:multiply" opacity="0.65">
<path fill-rule="evenodd" clip-rule="evenodd" d="M1076.31 336.583C1076.31 336.394 1076.26 336.208 1076.18 336.038C1072.88 329.821 968.517 332.391 916.159 360.758C868.709 386.474 854.284 438.012 855.104 453.325C855.107 454.537 855.354 455.736 855.83 456.85C860.02 464.748 916.043 487.626 968.405 459.254C1019.59 431.516 1076.83 346.179 1076.31 336.583Z" fill="#9C63A3"/>
</g>
</g>
<g style="mix-blend-mode:multiply">
<g style="mix-blend-mode:multiply" opacity="0.95">
<path fill-rule="evenodd" clip-rule="evenodd" d="M868.237 473.098C875.836 463.212 912.2 439.261 955.638 449.082C1003.57 459.929 1069.87 515.691 1068.66 521.306C1068.62 521.455 1068.55 521.594 1068.45 521.713C1063.68 527.91 983.161 548.641 936.309 538.052C888.37 527.208 865.277 482.8 866.827 475.666C867.116 474.724 867.595 473.85 868.234 473.101M1151.47 540.695C1151.6 540.519 1151.7 540.319 1151.77 540.106C1153.53 531.945 1057.21 450.921 987.57 435.174C924.444 420.901 871.605 455.739 860.584 470.076C859.655 471.162 858.96 472.426 858.54 473.792C856.296 484.121 889.841 548.671 959.484 564.425C1027.57 579.817 1144.55 549.682 1151.47 540.695Z" fill="#9C63A3"/>
</g>
<g style="mix-blend-mode:multiply" opacity="0.65">
<path fill-rule="evenodd" clip-rule="evenodd" d="M1068.74 521.9C1068.84 521.78 1068.91 521.64 1068.96 521.488C1070.33 515.787 1003.93 459.491 955.676 448.108C911.942 437.798 874.526 461.889 866.589 471.879C865.922 472.636 865.415 473.519 865.097 474.477C863.347 481.719 885.611 527.045 933.869 538.425C981.041 549.546 1063.77 528.163 1068.74 521.898" fill="#9C63A3"/>
</g>
</g>
<g style="mix-blend-mode:multiply">
<g style="mix-blend-mode:multiply" opacity="0.95">
<path fill-rule="evenodd" clip-rule="evenodd" d="M851.007 501.71C861.568 495.104 903.981 485.382 941.277 509.786C982.421 536.722 1025.15 612.177 1022.05 617.013C1021.97 617.142 1021.85 617.248 1021.72 617.321C1015.1 621.462 932.426 612.72 892.201 586.398C851.047 559.464 844.857 509.766 848.793 503.623C849.392 502.841 850.146 502.19 851.007 501.712M1092.91 664.155C1093.11 664.042 1093.27 663.89 1093.4 663.709C1097.9 656.681 1035.82 547.048 976.032 507.924C921.843 472.457 860.2 486.619 844.884 496.201C843.637 496.893 842.545 497.835 841.677 498.967C835.98 507.86 844.96 580.093 904.746 619.225C963.187 657.47 1083.31 670.163 1092.91 664.154" fill="#9C63A3"/>
</g>
<g style="mix-blend-mode:multiply" opacity="0.65">
<path fill-rule="evenodd" clip-rule="evenodd" d="M1021.93 617.602C1022.07 617.523 1022.18 617.418 1022.28 617.294C1025.55 612.432 982.907 536.443 941.642 508.889C904.247 483.925 860.8 493.41 849.886 499.997C848.997 500.472 848.214 501.122 847.583 501.908C843.424 508.083 848.521 558.351 889.783 585.898C930.119 612.825 1015.09 621.731 1021.93 617.602Z" fill="#9C63A3"/>
</g>
</g>
<g style="mix-blend-mode:multiply">
<g style="mix-blend-mode:multiply" opacity="0.95">
<path fill-rule="evenodd" clip-rule="evenodd" d="M842.01 510.399C854.405 511.535 894.056 529.492 909.06 571.53C925.61 617.927 914.18 703.939 908.799 705.916C908.653 705.963 908.498 705.978 908.346 705.958C900.575 705.246 839.976 648.178 823.791 602.83C807.236 556.431 832.256 513.085 839.094 510.576C840.043 510.315 841.036 510.254 842.01 510.395M936.839 786.419C937.06 786.447 937.284 786.426 937.496 786.358C945.318 783.484 961.931 658.52 937.877 591.115C916.076 530.02 858.432 503.948 840.452 502.299C839.042 502.095 837.605 502.184 836.231 502.559C826.333 506.192 789.95 569.182 813.999 636.592C837.516 702.479 925.568 785.388 936.839 786.419Z" fill="#9C63A3"/>
</g>
<g style="mix-blend-mode:multiply" opacity="0.65">
<path fill-rule="evenodd" clip-rule="evenodd" d="M908.344 706.309C908.501 706.332 908.661 706.32 908.813 706.275C914.347 704.385 926.174 617.999 909.906 571.044C895.154 528.49 854.822 509.717 842.157 508.35C841.163 508.191 840.147 508.234 839.17 508.478C832.135 510.877 805.898 554.013 822.172 600.973C838.083 646.871 900.412 705.458 908.349 706.312" fill="#9C63A3"/>
</g>
</g>
<g style="mix-blend-mode:multiply">
<g style="mix-blend-mode:multiply" opacity="0.95">
<path fill-rule="evenodd" clip-rule="evenodd" d="M800.387 533.84C809.752 538.715 835.133 565.548 833.474 603.363C831.638 645.093 795.185 708.926 790.329 708.747C790.199 708.738 790.073 708.699 789.96 708.635C784.089 705.579 754.766 641.321 756.554 600.531C758.387 558.797 791.873 532.818 798.04 533.045C798.868 533.146 799.667 533.417 800.385 533.84M786.614 780.936C786.778 781.029 786.961 781.084 787.149 781.099C794.204 781.356 847.177 688.622 849.834 627.991C852.247 573.038 815.337 534.055 801.753 526.984C800.711 526.371 799.555 525.979 798.355 525.832C789.427 525.503 740.746 563.248 738.083 623.88C735.484 683.146 778.097 776.504 786.614 780.936Z" fill="#9C63A3"/>
</g>
<g style="mix-blend-mode:multiply" opacity="0.65">
<path fill-rule="evenodd" clip-rule="evenodd" d="M789.845 708.908C789.96 708.975 790.088 709.017 790.221 709.03C795.17 709.326 832.058 645.329 834.288 603.25C836.308 565.113 810.649 537.424 801.151 532.28C800.422 531.835 799.61 531.542 798.765 531.42C792.48 531.045 758.103 556.466 755.872 598.546C753.696 639.681 783.891 705.683 789.845 708.908Z" fill="#9C63A3"/>
</g>
</g>
<g style="mix-blend-mode:multiply">
<path opacity="0.88" fill-rule="evenodd" clip-rule="evenodd" d="M776.369 430.048C750.192 442.884 533.523 549.117 495.661 567.677C455.988 592.261 481.653 631.009 495.605 637.729C503.919 642.277 556.473 680.13 675.588 635.686C738.129 612.812 767.686 561.109 767.686 561.109C767.686 561.109 806.63 469.756 809.606 461.05C812.581 452.344 807.106 418.645 776.369 430.048Z" fill="#35B669"/>
<path opacity="0.8" fill-rule="evenodd" clip-rule="evenodd" d="M776.994 429.667C768.428 433.047 678.911 476.243 678.911 476.243C678.911 476.243 628.608 508.186 608.715 571.655C569.947 692.579 610.319 743.196 615.265 751.272C622.653 764.867 662.637 788.62 685.332 747.879L809.59 461.339C819.528 430.139 785.558 426.284 776.994 429.667Z" fill="#DDE28A"/>
<path opacity="0.9" fill-rule="evenodd" clip-rule="evenodd" d="M591.915 655.445C591.915 655.445 710.736 649.184 766.394 564.359C770.459 554.342 807.356 467.012 810.483 459.187C817.675 434.772 791.722 423.817 778.589 429.138C769.834 432.894 674.152 479.22 667.898 483.602C592.853 545.578 591.915 655.445 591.915 655.445Z" fill="#90C95D"/>
</g>
</svg>
