<svg width="1150" height="1150" viewBox="0 0 1150 1150" fill="none" xmlns="http://www.w3.org/2000/svg">
<g style="mix-blend-mode:multiply">
<path opacity="0.95" fill-rule="evenodd" clip-rule="evenodd" d="M542.797 600.884C536.281 616.682 496.753 661.407 435.813 664.019C368.562 666.889 260.989 616.973 260.596 609.107C260.594 608.896 260.638 608.687 260.726 608.495C264.811 598.591 363.869 542.268 429.602 539.45C496.861 536.573 543.249 586.996 543.746 596.985C543.7 598.336 543.377 599.663 542.797 600.884ZM144.188 613.204C144.062 613.483 143.998 613.786 144 614.091C144.575 625.516 300.857 698.06 398.566 693.872C487.119 690.082 544.545 625.047 553.996 602.128C554.836 600.36 555.304 598.439 555.372 596.483C554.651 582.022 487.248 508.718 389.537 512.897C294.029 516.989 150.111 598.835 144.188 613.202" fill="#9C63A3"/>
<path opacity="0.65" fill-rule="evenodd" clip-rule="evenodd" d="M260.273 608.352C260.181 608.547 260.132 608.759 260.129 608.975C260.347 617.006 368.245 667.596 436.109 665.317C497.614 663.245 538.483 617.958 545.409 601.9C546.021 600.66 546.377 599.309 546.455 597.929C546.182 587.725 500.56 535.791 432.692 538.073C366.351 540.308 264.608 598.283 260.271 608.348" fill="#9C63A3"/>
</g>
<g style="mix-blend-mode:multiply">
<g style="mix-blend-mode:multiply" opacity="0.95">
<path fill-rule="evenodd" clip-rule="evenodd" d="M540.729 576.029C524.451 582.018 463.854 583.155 419.939 539.219C371.485 490.73 334.662 375.627 340.258 369.917C340.414 369.771 340.6 369.66 340.804 369.594C351.008 365.837 461.257 401.388 508.623 448.776C557.085 497.265 551.398 566.802 544.289 574.053C543.248 574.948 542.035 575.619 540.724 576.025M257.037 285.387C256.743 285.484 256.473 285.644 256.246 285.856C248.115 294.154 301.598 461.389 372.01 531.827C435.822 595.672 523.9 593.978 547.511 585.289C549.408 584.702 551.165 583.73 552.67 582.434C562.965 571.936 571.257 470.877 500.849 400.428C432.027 331.576 271.842 279.937 257.037 285.387Z" fill="#9C63A3"/>
</g>
<g style="mix-blend-mode:multiply" opacity="0.65">
<path fill-rule="evenodd" clip-rule="evenodd" d="M340.601 369.159C340.393 369.224 340.201 369.333 340.038 369.479C334.194 375.173 370.742 490.981 419.176 540.342C463.074 585.076 525.014 584.553 541.769 578.691C543.115 578.296 544.368 577.633 545.453 576.741C552.879 569.511 560.221 499.511 511.781 450.152C464.428 401.908 351.097 365.48 340.599 369.157" fill="#9C63A3"/>
</g>
</g>
<g style="mix-blend-mode:multiply">
<g style="mix-blend-mode:multiply" opacity="0.95">
<path fill-rule="evenodd" clip-rule="evenodd" d="M571.728 562.173C555.561 560.466 504.102 536.305 485.26 481.135C464.477 420.249 480.939 308.132 488.003 305.647C488.195 305.588 488.397 305.572 488.595 305.6C498.726 306.671 576.845 382.284 597.17 441.792C617.96 502.683 584.512 558.838 575.539 561.988C574.295 562.311 572.997 562.374 571.728 562.171M452.823 200.019C452.535 199.979 452.242 200.002 451.964 200.087C441.701 203.699 417.766 366.589 447.978 455.045C475.354 535.219 550.164 570.302 573.615 572.775C575.453 573.067 577.332 572.977 579.135 572.511C592.124 567.944 640.765 486.343 610.56 397.881C581.026 311.419 467.521 201.569 452.823 200.019Z" fill="#9C63A3"/>
</g>
<g style="mix-blend-mode:multiply" opacity="0.65">
<path fill-rule="evenodd" clip-rule="evenodd" d="M488.604 305.15C488.402 305.118 488.195 305.13 487.997 305.186C480.732 307.555 463.747 420.151 484.151 481.763C502.654 537.598 554.987 562.836 571.502 564.85C572.797 565.076 574.124 565.037 575.404 564.737C584.634 561.732 619.667 505.872 599.255 444.259C579.3 384.029 498.954 306.404 488.604 305.15Z" fill="#9C63A3"/>
</g>
</g>
<g style="mix-blend-mode:multiply">
<g style="mix-blend-mode:multiply" opacity="0.95">
<path fill-rule="evenodd" clip-rule="evenodd" d="M606.208 550.676C593.391 543.185 559.586 503.757 564.507 450.769C569.947 392.296 625.508 305.169 632.313 305.754C632.495 305.777 632.669 305.84 632.823 305.937C640.859 310.633 677.635 402.888 672.331 460.044C666.897 518.523 618.094 552.698 609.448 551.955C608.292 551.755 607.189 551.32 606.208 550.676ZM642.475 204.642C642.251 204.5 641.998 204.409 641.735 204.375C631.845 203.53 551.106 330.102 543.221 415.061C536.068 492.062 585.229 549.343 603.82 560.211C605.24 561.144 606.836 561.775 608.51 562.064C621.026 563.14 691.971 513.491 699.864 428.534C707.574 345.49 654.129 211.455 642.473 204.646" fill="#9C63A3"/>
</g>
<g style="mix-blend-mode:multiply" opacity="0.65">
<path fill-rule="evenodd" clip-rule="evenodd" d="M633 305.564C632.843 305.461 632.667 305.394 632.482 305.365C625.551 304.61 569.374 391.938 563.353 450.873C557.904 504.287 592.032 544.94 605.024 552.816C606.017 553.49 607.137 553.957 608.315 554.188C617.119 555.151 667.131 521.816 673.147 462.879C679.025 405.266 641.143 310.496 632.998 305.564" fill="#9C63A3"/>
</g>
</g>
<g style="mix-blend-mode:multiply">
<g style="mix-blend-mode:multiply" opacity="0.95">
<path fill-rule="evenodd" clip-rule="evenodd" d="M648.383 548.862C637.19 538.898 611.57 493.161 626.938 441.728C643.908 384.972 716.139 309.867 722.755 311.802C722.93 311.86 723.09 311.956 723.224 312.083C730.242 318.33 748.331 416.914 731.754 472.392C714.787 529.154 659.739 553.232 651.335 550.771C650.231 550.344 649.226 549.694 648.384 548.86M752.85 213.812C752.656 213.627 752.424 213.487 752.171 213.4C742.556 210.592 637.603 319.699 612.963 402.164C590.624 476.902 627.896 543.365 644.132 557.818C645.351 559.024 646.806 559.966 648.405 560.585C660.573 564.145 740.589 529.176 765.237 446.711C789.322 366.104 763.03 222.871 752.855 213.812" fill="#9C63A3"/>
</g>
<g style="mix-blend-mode:multiply" opacity="0.65">
<path fill-rule="evenodd" clip-rule="evenodd" d="M723.473 311.751C723.339 311.619 723.179 311.517 723.004 311.451C716.299 309.322 643.42 384.508 625.781 441.601C609.803 493.35 635.503 540.364 646.793 550.744C647.642 551.609 648.657 552.294 649.777 552.757C658.295 555.464 714.371 532.46 732.005 475.361C749.239 419.545 730.556 318.254 723.479 311.751" fill="#9C63A3"/>
</g>
</g>
<g style="mix-blend-mode:multiply">
<g style="mix-blend-mode:multiply" opacity="0.95">
<path fill-rule="evenodd" clip-rule="evenodd" d="M680.445 595.066C675.056 581.09 673.178 528.747 710.275 490.148C751.221 447.561 849.582 414.031 854.573 418.782C854.701 418.915 854.797 419.076 854.854 419.251C858.231 428.013 829.33 523.802 789.312 565.437C748.367 608.033 688.53 604.155 682.193 598.116C681.407 597.23 680.812 596.192 680.445 595.066ZM925.969 345.617C925.88 345.365 925.74 345.135 925.556 344.941C918.305 338.039 775.396 386.738 715.916 448.626C662.003 504.712 664.769 580.791 672.587 601.063C673.12 602.693 673.982 604.195 675.119 605.477C684.293 614.215 771.258 619.876 830.743 557.993C888.884 497.501 930.872 358.321 925.966 345.613" fill="#9C63A3"/>
</g>
<g style="mix-blend-mode:multiply" opacity="0.65">
<path fill-rule="evenodd" clip-rule="evenodd" d="M855.23 419.065C855.172 418.886 855.076 418.721 854.948 418.583C849.967 413.617 750.996 446.92 709.301 489.503C671.519 528.098 672.885 581.614 678.171 596.004C678.528 597.162 679.115 598.236 679.897 599.162C686.222 605.471 746.482 610.773 788.174 568.185C828.924 526.551 858.538 428.086 855.227 419.066" fill="#9C63A3"/>
</g>
</g>
<g style="mix-blend-mode:multiply">
<g style="mix-blend-mode:multiply" opacity="0.95">
<path fill-rule="evenodd" clip-rule="evenodd" d="M697.138 617.114C696.096 602.167 709.688 551.595 756.484 525.676C808.13 497.083 911.973 494.117 915.35 500.134C915.434 500.299 915.478 500.481 915.481 500.666C916.138 510.036 860.351 593.025 809.874 620.982C758.23 649.578 702.192 628.187 697.908 620.545C697.418 619.467 697.155 618.299 697.134 617.114M1005.08 451.321C1005.07 451.055 1005 450.793 1004.89 450.552C999.981 441.814 849.104 446.109 774.079 487.666C706.075 525.321 686.355 598.841 687.865 620.523C687.896 622.239 688.28 623.93 688.99 625.491C695.187 636.553 776.625 667.668 851.66 626.117C924.998 585.499 1006.04 464.915 1005.09 451.321" fill="#9C63A3"/>
</g>
<g style="mix-blend-mode:multiply" opacity="0.65">
<path fill-rule="evenodd" clip-rule="evenodd" d="M915.894 500.597C915.891 500.408 915.846 500.221 915.762 500.051C912.46 493.835 808.101 496.404 755.743 524.771C708.293 550.488 693.868 602.026 694.688 617.338C694.691 618.55 694.938 619.749 695.414 620.864C699.604 628.762 755.627 651.64 807.989 623.268C859.169 595.529 916.41 510.193 915.894 500.597Z" fill="#9C63A3"/>
</g>
</g>
<g style="mix-blend-mode:multiply">
<g style="mix-blend-mode:multiply" opacity="0.95">
<path fill-rule="evenodd" clip-rule="evenodd" d="M707.821 637.112C715.42 627.226 751.784 603.275 795.222 613.096C843.157 623.943 909.459 679.704 908.239 685.32C908.202 685.469 908.131 685.608 908.033 685.726C903.268 691.924 822.745 712.655 775.893 702.066C727.954 691.222 704.861 646.814 706.411 639.68C706.7 638.737 707.179 637.864 707.818 637.115M991.051 704.709C991.187 704.533 991.288 704.333 991.351 704.119C993.115 695.959 896.795 614.935 827.154 599.188C764.028 584.915 711.189 619.753 700.168 634.09C699.239 635.175 698.544 636.44 698.124 637.806C695.88 648.135 729.425 712.685 799.068 728.438C867.152 743.831 984.138 713.696 991.051 704.709Z" fill="#9C63A3"/>
</g>
<g style="mix-blend-mode:multiply" opacity="0.65">
<path fill-rule="evenodd" clip-rule="evenodd" d="M908.324 685.913C908.425 685.794 908.499 685.653 908.54 685.502C909.919 679.801 843.513 623.505 795.26 612.122C751.526 601.812 714.11 625.903 706.173 635.893C705.506 636.649 704.999 637.533 704.681 638.49C702.931 645.733 725.195 691.058 773.453 702.438C820.625 713.559 903.352 692.177 908.324 685.911" fill="#9C63A3"/>
</g>
</g>
<g style="mix-blend-mode:multiply">
<g style="mix-blend-mode:multiply" opacity="0.95">
<path fill-rule="evenodd" clip-rule="evenodd" d="M690.591 665.724C701.152 659.118 743.565 649.396 780.861 673.8C822.005 700.736 864.733 776.191 861.638 781.027C861.552 781.156 861.436 781.261 861.3 781.335C854.687 785.476 772.01 776.734 731.785 750.412C690.631 723.477 684.441 673.78 688.377 667.637C688.976 666.855 689.73 666.204 690.591 665.726M932.499 828.169C932.69 828.056 932.856 827.904 932.986 827.723C937.48 820.695 875.408 711.062 815.616 671.938C761.427 636.47 699.784 650.633 684.468 660.215C683.221 660.907 682.129 661.849 681.261 662.981C675.564 671.874 684.544 744.107 744.33 783.238C802.771 821.483 922.892 834.177 932.497 828.167" fill="#9C63A3"/>
</g>
<g style="mix-blend-mode:multiply" opacity="0.65">
<path fill-rule="evenodd" clip-rule="evenodd" d="M861.515 781.616C861.649 781.537 861.767 781.432 861.862 781.308C865.136 776.445 822.491 700.457 781.226 672.903C743.831 647.939 700.384 657.424 689.47 664.01C688.581 664.485 687.798 665.136 687.167 665.922C683.008 672.097 688.105 722.365 729.367 749.912C769.703 776.839 854.676 785.745 861.515 781.616Z" fill="#9C63A3"/>
</g>
</g>
<g style="mix-blend-mode:multiply">
<g style="mix-blend-mode:multiply" opacity="0.95">
<path fill-rule="evenodd" clip-rule="evenodd" d="M681.594 674.413C693.989 675.549 733.64 693.506 748.644 735.544C765.194 781.941 753.764 867.953 748.383 869.93C748.237 869.977 748.082 869.991 747.93 869.972C740.159 869.259 679.56 812.192 663.375 766.844C646.82 720.444 671.84 677.099 678.678 674.589C679.627 674.329 680.62 674.268 681.594 674.409M776.423 950.433C776.644 950.461 776.868 950.44 777.08 950.372C784.902 947.498 801.515 822.534 777.461 755.128C755.66 694.034 698.016 667.962 680.036 666.313C678.626 666.109 677.189 666.198 675.815 666.573C665.917 670.206 629.534 733.195 653.583 800.606C677.1 866.493 765.152 949.402 776.423 950.433Z" fill="#9C63A3"/>
</g>
<g style="mix-blend-mode:multiply" opacity="0.65">
<path fill-rule="evenodd" clip-rule="evenodd" d="M747.928 870.322C748.085 870.346 748.245 870.334 748.397 870.289C753.931 868.398 765.758 782.013 749.49 735.058C734.738 692.503 694.406 673.731 681.741 672.364C680.747 672.204 679.731 672.248 678.754 672.492C671.719 674.891 645.482 718.026 661.756 764.986C677.667 810.885 739.996 869.472 747.933 870.326" fill="#9C63A3"/>
</g>
</g>
<g style="mix-blend-mode:multiply">
<g style="mix-blend-mode:multiply" opacity="0.95">
<path fill-rule="evenodd" clip-rule="evenodd" d="M639.971 697.854C649.336 702.729 674.717 729.561 673.058 767.377C671.222 809.107 634.769 872.94 629.913 872.761C629.783 872.752 629.657 872.713 629.544 872.648C623.673 869.593 594.35 805.335 596.138 764.545C597.971 722.811 631.457 696.831 637.624 697.059C638.452 697.16 639.251 697.431 639.969 697.854M626.198 944.949C626.362 945.042 626.545 945.098 626.733 945.113C633.788 945.37 686.761 852.636 689.418 792.004C691.831 737.052 654.921 698.069 641.337 690.998C640.295 690.385 639.139 689.993 637.939 689.846C629.011 689.516 580.33 727.262 577.667 787.894C575.068 847.159 617.681 940.518 626.198 944.949Z" fill="#9C63A3"/>
</g>
<g style="mix-blend-mode:multiply" opacity="0.65">
<path fill-rule="evenodd" clip-rule="evenodd" d="M629.429 872.922C629.544 872.989 629.672 873.031 629.805 873.044C634.754 873.34 671.642 809.343 673.872 767.264C675.892 729.127 650.233 701.437 640.735 696.293C640.006 695.848 639.194 695.556 638.349 695.434C632.064 695.059 597.687 720.48 595.456 762.56C593.28 803.695 623.475 869.697 629.429 872.922Z" fill="#9C63A3"/>
</g>
</g>
<g style="mix-blend-mode:multiply">
<path opacity="0.88" fill-rule="evenodd" clip-rule="evenodd" d="M615.953 594.062C589.776 606.897 373.107 713.131 335.245 731.691C295.572 756.275 321.237 795.023 335.189 801.743C343.503 806.291 396.057 844.144 515.172 799.7C577.713 776.826 607.27 725.123 607.27 725.123C607.27 725.123 646.214 633.77 649.19 625.064C652.165 616.358 646.69 582.659 615.953 594.062Z" fill="#35B669"/>
<path opacity="0.8" fill-rule="evenodd" clip-rule="evenodd" d="M616.578 593.681C608.012 597.061 518.495 640.257 518.495 640.257C518.495 640.257 468.192 672.2 448.299 735.669C409.531 856.593 449.903 907.21 454.849 915.286C462.237 928.881 502.221 952.633 524.916 911.893L649.174 625.353C659.112 594.153 625.142 590.298 616.578 593.681Z" fill="#DDE28A"/>
<path opacity="0.9" fill-rule="evenodd" clip-rule="evenodd" d="M431.499 819.459C431.499 819.459 550.32 813.198 605.978 728.373C610.043 718.356 646.94 631.026 650.067 623.201C657.259 598.786 631.306 587.83 618.173 593.152C609.418 596.908 513.736 643.233 507.482 647.616C432.437 709.592 431.499 819.459 431.499 819.459Z" fill="#90C95D"/>
</g>
</svg>
